<svg id="visual" viewBox="0 0 900 600" width="900" height="600" xmlns="http://www.w3.org/2000/svg" xmlns:xlink="http://www.w3.org/1999/xlink" version="1.1"><rect x="0" y="0" width="900" height="600" fill="#001220"></rect><defs><linearGradient id="grad1_0" x1="33.3%" y1="0%" x2="100%" y2="100%"><stop offset="20%" stop-color="#001220" stop-opacity="1"></stop><stop offset="80%" stop-color="#001220" stop-opacity="1"></stop></linearGradient></defs><defs><linearGradient id="grad2_0" x1="0%" y1="0%" x2="66.7%" y2="100%"><stop offset="20%" stop-color="#001220" stop-opacity="1"></stop><stop offset="80%" stop-color="#001220" stop-opacity="1"></stop></linearGradient></defs><g transform="translate(900, 0)"><path d="M0 270.4C-38.7 270.4 -77.4 270.5 -103.5 249.8C-129.6 229.2 -143.1 187.9 -158.4 158.4C-173.7 128.9 -190.8 111.3 -209.7 86.9C-228.7 62.4 -249.6 31.2 -270.4 0L0 0Z" fill="#FBAE3C"></path></g><g transform="translate(0, 600)"><path d="M0 -270.4C30.5 -247.4 61 -224.3 85 -205.1C108.9 -185.9 126.3 -170.4 156.3 -156.3C186.2 -142.1 228.7 -129.3 249.8 -103.5C270.9 -77.7 270.7 -38.8 270.4 0L0 0Z" fill="#FBAE3C"></path></g></svg>